<?xml version="1.0" encoding="UTF-8"?>
<svg xmlns="http://www.w3.org/2000/svg" xmlns:xlink="http://www.w3.org/1999/xlink" id="Layer_1" data-name="Layer 1" viewBox="0 0 642.75 99.92">
  <defs>
    <style>.cls-1{fill:url(#Unbenannter_Verlauf_21);}.cls-2{fill:url(#Unbenannter_Verlauf_21-2);}</style>
    <linearGradient id="Unbenannter_Verlauf_21" x1="-0.66" y1="47.64" x2="303.87" y2="47.64" gradientUnits="userSpaceOnUse">
      <stop offset="0" stop-color="#d50006"></stop>
      <stop offset="1" stop-color="#51247a"></stop>
    </linearGradient>
    <linearGradient id="Unbenannter_Verlauf_21-2" x1="0.81" y1="47.37" x2="305.35" y2="47.37" xlink:href="#Unbenannter_Verlauf_21"></linearGradient>
  </defs>
  <polygon class="cls-1" points="189.25 38.48 152.41 38.48 152.41 1.16 139.99 1.16 133.42 19.22 133.42 94.13 152.41 94.13 152.41 56.55 189.25 56.55 189.25 94.13 202.03 94.13 208.23 77.05 208.23 1.16 189.25 1.16 189.25 38.48"></polygon>
  <path class="cls-2" d="M262.81,40.46l-7.46-2.75c-9.83-3.53-14.41-6-14.41-11.65s6-8.25,12.44-8.25h20.67L280.54,0H251.69c-18.07,0-29.86,10.34-29.86,27.89,0,12.7,8,21.34,22.91,26.58l7.86,2.75c9.16,3.15,13,5.44,13,10.68s-5,9-12.44,9h-26l-6.47,17.81h33.2c19.24,0,31-11.39,31.09-28C284.94,52.71,276.43,45.44,262.81,40.46Z" transform="translate(-1.47)"></path>
  <polygon class="cls-1" points="0 94.13 18.99 94.13 18.99 56.55 41.35 56.55 47.93 38.48 18.99 38.48 18.99 19.23 49.99 19.23 56.57 1.16 0 1.16 0 94.13"></polygon>
  <polygon class="cls-1" points="68.16 94.13 87.14 94.13 87.14 56.55 109.14 56.55 116.08 38.48 87.14 38.48 87.14 19.23 118.14 19.23 124.72 1.16 68.16 1.16 68.16 94.13"></polygon>
  <path d="M315,.57h16.35V4.76H320.12v7.45h9.44v4.15h-9.44V26.8H315Z" transform="translate(-1.47)"></path>
  <path d="M346.29,21.6l2.21,3.06a9.4,9.4,0,0,1-6.56,2.56c-6.13,0-8.74-3.88-8.74-9.27,0-5,2.76-9.24,8.24-9.24s7.49,3.84,7.49,7.69a14.86,14.86,0,0,1-.31,3.06H337.94a3.62,3.62,0,0,0,4,3.77A7,7,0,0,0,346.29,21.6Zm-1.79-5.48a4.55,4.55,0,0,0,.08-.58,2.9,2.9,0,0,0-3.14-3.06c-2.33,0-3.34,1.63-3.46,3.64Z" transform="translate(-1.47)"></path>
  <path d="M357.63,11.9c.89-1.6,2.25-3.19,4.74-3.19a7.75,7.75,0,0,1,2,.24l-.34,5a14.23,14.23,0,0,0-2.84-.35,3.81,3.81,0,0,0-3.42,2.1V26.8h-4.7V9.1h4.51v2.8Z" transform="translate(-1.47)"></path>
  <path d="M367.72,9.1h4.55v2c.93-1.32,2.64-2.41,5.47-2.41,4,0,6.06,2.45,6.06,7V26.8h-4.74V16.28c0-2.13-.81-3.26-3.18-3.26a5.5,5.5,0,0,0-3.46,1.32V26.8h-4.7Z" transform="translate(-1.47)"></path>
  <path d="M398.94,4h-2.21c-1.55,0-2,.93-2,2.48V9.1h4.58v4h-4.58V26.8H390V13.1h-2.8V9.49L390,9.1V6.46c0-4.19,2.1-6.44,6.45-6.44h2.48Z" transform="translate(-1.47)"></path>
  <path d="M412.61,26.8V24.74A7.15,7.15,0,0,1,407,27.22a4.86,4.86,0,0,1-5.21-5.16c0-3.88,3.34-5.59,8.59-5.94L412.3,16V14.84c0-1.47-.62-2.44-2.84-2.44-1.82,0-2.71.74-2.71,1.71v.7h-4.08a6.52,6.52,0,0,1-.12-1.21c0-2.91,2.76-4.89,7.22-4.89s7.27,1.83,7.27,6.1v12Zm-3.84-3.15a5.22,5.22,0,0,0,3.53-1.51V18.8l-1.9.27c-2.53.35-3.85,1.17-3.85,2.68C406.55,23,407.37,23.65,408.77,23.65Z" transform="translate(-1.47)"></path>
  <path d="M429.27,8.71c3.26,0,5.86,1.32,7.1,4L433.11,15a3.86,3.86,0,0,0-3.45-2.13c-2.76,0-3.81,2.13-3.81,5.08s1,5.12,3.81,5.12a3.85,3.85,0,0,0,3.45-2.17l3.26,2.36c-1.24,2.64-3.84,4-7.1,4-5.87,0-8.2-4.27-8.2-9.27S423.4,8.71,429.27,8.71Z" transform="translate(-1.47)"></path>
  <path d="M440,0h4.7V10.77A7,7,0,0,1,450,8.71c4,0,6.06,2.45,6.06,7V26.8h-4.7V16.28c0-2.13-.85-3.26-3.22-3.26a5.5,5.5,0,0,0-3.46,1.32V26.8H440Z" transform="translate(-1.47)"></path>
  <path d="M460.91,0h4.7V10.77a7,7,0,0,1,5.32-2.06c4,0,6.06,2.45,6.06,7V26.8h-4.7V16.28c0-2.13-.85-3.26-3.22-3.26a5.5,5.5,0,0,0-3.46,1.32V26.8h-4.7Z" transform="translate(-1.47)"></path>
  <path d="M497.76,17.91c0,5.43-2.64,9.31-8.46,9.31-5.56,0-8.28-4-8.28-9.23s2.61-9.28,8.43-9.28C495,8.71,497.76,12.59,497.76,17.91ZM493,18c0-3.34-1.13-5-3.62-5s-3.53,1.71-3.53,5S487,23,489.37,23,493,21.21,493,18Z" transform="translate(-1.47)"></path>
  <path d="M509.37,8.71c3.26,0,5.86,1.32,7.11,4L513.21,15a3.84,3.84,0,0,0-3.45-2.13C507,12.87,506,15,506,18s1.05,5.12,3.81,5.12a3.84,3.84,0,0,0,3.45-2.17l3.27,2.36c-1.25,2.64-3.85,4-7.11,4-5.86,0-8.19-4.27-8.19-9.27S503.51,8.71,509.37,8.71Z" transform="translate(-1.47)"></path>
  <path d="M520.12,0h4.7V10.77a7,7,0,0,1,5.32-2.06c4,0,6.06,2.45,6.06,7V26.8h-4.7V16.28c0-2.13-.85-3.26-3.22-3.26a5.5,5.5,0,0,0-3.46,1.32V26.8h-4.7Z" transform="translate(-1.47)"></path>
  <path d="M551.77,14.07a6,6,0,0,0-4.27-1.82c-1.63,0-2.41.77-2.41,1.7s.51,1.44,1.63,1.67l2.95.7c3.54.77,5.05,2.68,5.05,5.24,0,2.79-1.9,5.66-7.69,5.66-3.8,0-6.09-1.59-7.22-3l2.68-2.8a6.37,6.37,0,0,0,4.74,2.29c1.59,0,2.72-.58,2.72-1.75,0-.77-.59-1.39-1.79-1.66l-3.07-.74c-3.1-.78-4.66-2.6-4.66-5.16s1.9-5.71,7.26-5.71a8.53,8.53,0,0,1,6.68,2.6Z" transform="translate(-1.47)"></path>
  <path d="M566.14,8.71c3.26,0,5.86,1.32,7.1,4L570,15a3.84,3.84,0,0,0-3.45-2.13c-2.76,0-3.81,2.13-3.81,5.08s1,5.12,3.81,5.12A3.85,3.85,0,0,0,570,20.9l3.26,2.36c-1.24,2.64-3.84,4-7.1,4-5.87,0-8.2-4.27-8.2-9.27S560.27,8.71,566.14,8.71Z" transform="translate(-1.47)"></path>
  <path d="M576.89,0h4.7V10.77a7,7,0,0,1,5.32-2.06c4,0,6.06,2.45,6.06,7V26.8h-4.7V16.28c0-2.13-.85-3.26-3.22-3.26a5.5,5.5,0,0,0-3.46,1.32V26.8h-4.7Z" transform="translate(-1.47)"></path>
  <path d="M613.66,26.8h-4.54v-2c-.93,1.32-2.64,2.4-5.47,2.4-4,0-6.06-2.44-6.06-7V9.1h4.74V19.62c0,2.13.81,3.26,3.18,3.26A5.5,5.5,0,0,0,609,21.56V9.1h4.69Z" transform="translate(-1.47)"></path>
  <path d="M623.21,0v21c0,1.13.35,1.59,1.52,1.59h.85V27h-2.4c-3.62,0-4.66-2.29-4.66-5.24V0Z" transform="translate(-1.47)"></path>
  <path d="M641.58,21.6l2.22,3.06a9.45,9.45,0,0,1-6.57,2.56c-6.13,0-8.73-3.88-8.73-9.27,0-5,2.75-9.24,8.23-9.24s7.49,3.84,7.49,7.69a14.2,14.2,0,0,1-.31,3.06H633.23a3.62,3.62,0,0,0,4,3.77A7,7,0,0,0,641.58,21.6Zm-1.78-5.48c0-.23.07-.46.07-.58a2.9,2.9,0,0,0-3.14-3.06c-2.33,0-3.34,1.63-3.46,3.64Z" transform="translate(-1.47)"></path>
  <path d="M328.39,43.69a5.66,5.66,0,0,0-5-2.37c-2.41,0-3.73,1.4-3.73,3.3,0,1.55.78,2.52,2.72,3.14l3.34,1c4.7,1.48,6.41,3.88,6.41,7.22,0,5.08-4,8-9.44,8-5.78,0-8.31-2.75-9.4-4.81l3.5-2.87c1,1.82,2.33,3.34,5.9,3.34,2.68,0,4.16-1.32,4.16-3.3,0-1.63-1-2.56-2.95-3.18l-3.31-1c-4.58-1.44-6.21-4-6.21-7.26,0-4.07,2.56-8,9-8,4.54,0,7.11,1.86,8.51,3.88Z" transform="translate(-1.47)"></path>
  <path d="M343.8,45.51c3.27,0,5.87,1.32,7.11,4l-3.26,2.33a3.87,3.87,0,0,0-3.46-2.13c-2.75,0-3.8,2.13-3.8,5.08s1.05,5.12,3.8,5.12a3.86,3.86,0,0,0,3.46-2.17l3.26,2.37C349.67,62.7,347.07,64,343.8,64c-5.86,0-8.19-4.27-8.19-9.27S337.94,45.51,343.8,45.51Z" transform="translate(-1.47)"></path>
  <path d="M354.56,36.82h4.7V47.57a7,7,0,0,1,5.32-2.06c4,0,6.06,2.45,6.06,7V63.6h-4.7V53.08c0-2.13-.86-3.26-3.23-3.26a5.47,5.47,0,0,0-3.45,1.32V63.6h-4.7Z" transform="translate(-1.47)"></path>
  <path d="M390.28,45.9l3.81,12.73,3.57-12.73h4.86l-5.44,17.7H392l-3.88-11.72L384.23,63.6h-5.17l-5.44-17.7h4.82l3.65,12.73,3.77-12.73Z" transform="translate(-1.47)"></path>
  <path d="M417.77,58.4,420,61.46A9.45,9.45,0,0,1,413.42,64c-6.13,0-8.73-3.88-8.73-9.27,0-5,2.75-9.24,8.23-9.24s7.49,3.85,7.49,7.69a14.13,14.13,0,0,1-.31,3.06H409.42a3.62,3.62,0,0,0,4,3.77A7,7,0,0,0,417.77,58.4ZM416,52.93a4.91,4.91,0,0,0,.08-.59,2.91,2.91,0,0,0-3.15-3.06c-2.33,0-3.34,1.63-3.46,3.65Z" transform="translate(-1.47)"></path>
  <path d="M424,39.85a2.84,2.84,0,0,1,5.67,0,2.53,2.53,0,0,1-2.79,2.71C425.27,42.56,424,41.83,424,39.85Zm.59,6h4.69V63.6h-4.69Z" transform="translate(-1.47)"></path>
  <path d="M447,49,439.4,59.6H447v4H433.5V60.53l7.69-10.63h-7.34v-4H447Z" transform="translate(-1.47)"></path>
  <path d="M327.66,77.61h2.89l2.2,17.14h-2.1l-1.8-14.55-4.64,14.55h-2.36L317.28,80.2l-1.85,14.55H313.3l2.31-17.14h3L323.07,92Z" transform="translate(-1.47)"></path>
  <path d="M335.23,79a1.29,1.29,0,0,1,1.42-1.42A1.33,1.33,0,0,1,338.07,79a1.29,1.29,0,0,1-1.42,1.37A1.26,1.26,0,0,1,335.23,79Zm.43,4.18h2V94.75h-2Z" transform="translate(-1.47)"></path>
  <path d="M344.1,91.4c0,1.07.46,1.72,1.58,1.72a4.36,4.36,0,0,0,1.57-.35l.2,1.75a5.67,5.67,0,0,1-2.36.48c-2.1,0-3-1.34-3-3.37V84.94h-2.21v-1.5l2.21-.25V80.3l2-.38v3.27h3.1v1.75h-3.1Z" transform="translate(-1.47)"></path>
  <path d="M359.29,83.19V95.63c0,2.41-1.83,4.29-4.84,4.29s-4.54-1.65-4.54-3.5h1.82c0,.86,1,1.83,2.72,1.83a2.52,2.52,0,0,0,2.81-2.54V93.56A4.14,4.14,0,0,1,354.09,95c-3.4,0-4.94-2.36-4.94-6s1.59-6,4.92-6a4.05,4.05,0,0,1,3.27,1.36V83.19Zm-4.84,9.93a3.42,3.42,0,0,0,2.81-1.39V86.21a3.34,3.34,0,0,0-2.81-1.4c-2.49,0-3.22,1.73-3.22,4.16S351.94,93.12,354.45,93.12Z" transform="translate(-1.47)"></path>
  <path d="M364.64,77.26V91.48c0,1,.25,1.44,1.16,1.44h.64V94.8h-1.2c-2,0-2.63-1.19-2.63-3.09V77.26Z" transform="translate(-1.47)"></path>
  <path d="M368.21,79a1.29,1.29,0,0,1,1.42-1.42A1.33,1.33,0,0,1,371.05,79a1.29,1.29,0,0,1-1.42,1.37A1.26,1.26,0,0,1,368.21,79Zm.43,4.18h2V94.75h-2Z" transform="translate(-1.47)"></path>
  <path d="M382,92l1,1.37A6,6,0,0,1,378.83,95c-3.8,0-5.3-2.51-5.3-6.06,0-3.32,1.6-6,5.07-6,3.25,0,4.64,2.38,4.64,4.86a12.6,12.6,0,0,1-.15,1.8h-7.53c.05,2.18,1,3.65,3.27,3.65A4.77,4.77,0,0,0,382,92Zm-.71-4c0-.16.05-.38.05-.51a2.63,2.63,0,0,0-2.72-2.92c-2.08,0-2.89,1.5-3,3.43Z" transform="translate(-1.47)"></path>
  <path d="M393.69,77.26h2V94.75h-1.95V93.66a4.45,4.45,0,0,1-3.4,1.34c-3.27,0-4.87-2.33-4.87-6.06s1.57-6,4.9-6a4.29,4.29,0,0,1,3.32,1.34ZM390.8,93.12a3.28,3.28,0,0,0,2.89-1.39V86.21a3.51,3.51,0,0,0-2.89-1.4c-2.49,0-3.25,1.7-3.25,4.13S388.31,93.12,390.8,93.12Z" transform="translate(-1.47)"></path>
  <path d="M412.19,77.26h2V94.75h-2V93.66a4.45,4.45,0,0,1-3.4,1.34c-3.27,0-4.86-2.33-4.86-6.06s1.57-6,4.89-6a4.27,4.27,0,0,1,3.32,1.34ZM409.3,93.12a3.26,3.26,0,0,0,2.89-1.39V86.21a3.5,3.5,0,0,0-2.89-1.4c-2.48,0-3.25,1.7-3.25,4.13S406.82,93.12,409.3,93.12Z" transform="translate(-1.47)"></path>
  <path d="M425.5,92l1,1.37A6,6,0,0,1,422.36,95c-3.81,0-5.3-2.51-5.3-6.06,0-3.32,1.59-6,5.07-6,3.24,0,4.64,2.38,4.64,4.86a14.23,14.23,0,0,1-.15,1.8h-7.54c.05,2.18,1,3.65,3.28,3.65A4.75,4.75,0,0,0,425.5,92Zm-.71-4a3.25,3.25,0,0,0,0-.51,2.63,2.63,0,0,0-2.71-2.92c-2.08,0-2.89,1.5-3,3.43Z" transform="translate(-1.47)"></path>
  <path d="M431.55,85.09a3.49,3.49,0,0,1,3.23-2.15,4.9,4.9,0,0,1,1.39.17l-.23,2.13A6.83,6.83,0,0,0,434.4,85a3.09,3.09,0,0,0-2.82,2.18v7.56h-2V83.19h2v1.9Z" transform="translate(-1.47)"></path>
  <path d="M452.32,81.06a4,4,0,0,0-3.7-1.8c-2.18,0-3.3,1.32-3.3,3,0,1.44.81,2.13,2.43,2.61l2.29.68c2.56.79,4.13,2,4.13,4.49,0,3-2.21,5-5.86,5-3.85,0-5.22-1.85-5.88-3.24l1.65-1.12c.58,1.29,1.49,2.46,4.23,2.46,2.41,0,3.6-1.19,3.6-3,0-1.49-1.06-2.2-2.61-2.66L447,86.79c-2.56-.79-3.93-2.21-3.93-4.46,0-2.59,1.72-5,5.53-5,2.76,0,4.51,1.19,5.3,2.51Z" transform="translate(-1.47)"></path>
  <path d="M457.26,88.36V77.61h2.18V88.39c0,3.37,1.44,4.71,4.13,4.71s4.14-1.34,4.14-4.71V77.61h2.18V88.36c0,4.82-2.61,6.64-6.32,6.64S457.26,93.15,457.26,88.36Z" transform="translate(-1.47)"></path>
  <path d="M476.09,88v6.75h-2.18V77.61h5.46c3.93,0,5.75,2,5.75,5.2S483.3,88,479.37,88Zm0-1.84h3.15c2.74,0,3.65-1.37,3.65-3.35s-.91-3.35-3.65-3.35h-3.15Z" transform="translate(-1.47)"></path>
  <path d="M496.91,81.06a4,4,0,0,0-3.7-1.8c-2.19,0-3.3,1.32-3.3,3,0,1.44.81,2.13,2.43,2.61l2.29.68c2.56.79,4.13,2,4.13,4.49,0,3-2.21,5-5.86,5-3.85,0-5.22-1.85-5.88-3.24l1.65-1.12c.58,1.29,1.49,2.46,4.23,2.46,2.41,0,3.6-1.19,3.6-3,0-1.49-1.06-2.2-2.61-2.66l-2.28-.68c-2.56-.79-3.93-2.21-3.93-4.46,0-2.59,1.72-5,5.53-5,2.76,0,4.51,1.19,5.3,2.51Z" transform="translate(-1.47)"></path>
  <path d="M502,77.61h2.18V94.75H502Z" transform="translate(-1.47)"></path>
</svg>
