<?xml version="1.0" encoding="UTF-8"?>
<!-- Generator: Adobe Illustrator 24.2.3, SVG Export Plug-In . SVG Version: 6.00 Build 0)  -->
<svg xmlns="http://www.w3.org/2000/svg" xmlns:xlink="http://www.w3.org/1999/xlink" version="1.1" id="Layer_1" x="0px" y="0px" viewBox="0 0 284.94 219.93" style="enable-background:new 0 0 284.94 219.93;" xml:space="preserve">
<style type="text/css">
	.st0{fill:url(#SVGID_1_);}
	.st1{fill:url(#SVGID_2_);}
	.st2{fill:url(#SVGID_3_);}
	.st3{fill:url(#SVGID_4_);}
</style>
<g>
	<linearGradient id="SVGID_1_" gradientUnits="userSpaceOnUse" x1="0.8141" y1="47.6429" x2="305.348" y2="47.6429">
		<stop offset="0" style="stop-color:#D50006"></stop>
		<stop offset="1" style="stop-color:#51247A"></stop>
	</linearGradient>
	<polygon class="st0" points="190.72,38.48 153.88,38.48 153.88,1.16 141.46,1.16 134.89,19.22 134.89,94.13 153.88,94.13    153.88,56.55 190.72,56.55 190.72,94.13 203.5,94.13 209.71,77.05 209.71,1.16 190.72,1.16  "></polygon>
	<linearGradient id="SVGID_2_" gradientUnits="userSpaceOnUse" x1="0.8141" y1="47.3698" x2="305.348" y2="47.3698">
		<stop offset="0" style="stop-color:#D50006"></stop>
		<stop offset="1" style="stop-color:#51247A"></stop>
	</linearGradient>
	<path class="st1" d="M262.81,40.46l-7.46-2.75c-9.82-3.54-14.41-6.02-14.41-11.65c0-5.5,6.03-8.25,12.44-8.25   c2.67,0,13.39,0,20.67,0L280.54,0c-0.02,0-17.49,0-28.85,0c-18.07,0-29.86,10.34-29.86,27.89c0,12.7,7.98,21.34,22.91,26.58   l7.86,2.75c9.17,3.14,12.96,5.43,12.96,10.67c0,5.37-4.97,9.03-12.44,9.03c-3.51,0-17.43,0-26,0l-6.47,17.81c0.7,0,18.71,0,33.19,0   c19.25,0,30.96-11.39,31.09-28.02C284.94,52.71,276.43,45.44,262.81,40.46z"></path>
	<linearGradient id="SVGID_3_" gradientUnits="userSpaceOnUse" x1="0.8141" y1="47.6429" x2="305.348" y2="47.6429">
		<stop offset="0" style="stop-color:#D50006"></stop>
		<stop offset="1" style="stop-color:#51247A"></stop>
	</linearGradient>
	<polygon class="st2" points="1.47,94.13 20.46,94.13 20.46,56.55 42.82,56.55 49.4,38.48 20.46,38.48 20.46,19.23 51.46,19.23    58.04,1.16 1.47,1.16  "></polygon>
	<linearGradient id="SVGID_4_" gradientUnits="userSpaceOnUse" x1="0.8141" y1="47.6429" x2="305.348" y2="47.6429">
		<stop offset="0" style="stop-color:#D50006"></stop>
		<stop offset="1" style="stop-color:#51247A"></stop>
	</linearGradient>
	<polygon class="st3" points="69.63,94.13 88.62,94.13 88.62,56.55 110.62,56.55 117.56,38.48 88.62,38.48 88.62,19.23    119.62,19.23 126.2,1.16 69.63,1.16  "></polygon>
</g>
<g>
	<path d="M13,112.88c-0.83-1.24-2.24-2.04-4.31-2.04s-3.21,1.2-3.21,2.84c0,1.34,0.67,2.17,2.34,2.71l2.87,0.87   c4.04,1.27,5.51,3.34,5.51,6.21c0,4.38-3.41,6.91-8.12,6.91c-4.98,0-7.15-2.37-8.08-4.14l3.01-2.47c0.83,1.57,2,2.87,5.08,2.87   c2.3,0,3.57-1.13,3.57-2.84c0-1.4-0.83-2.2-2.54-2.74l-2.84-0.87c-3.94-1.24-5.34-3.44-5.34-6.25c0-3.51,2.2-6.85,7.75-6.85   c3.91,0,6.11,1.6,7.31,3.34L13,112.88z"></path>
	<path d="M32.07,114.78l3.27,10.96l3.07-10.96h4.18l-4.68,15.23H33.5l-3.34-10.09l-3.31,10.09h-4.44l-4.68-15.23h4.14l3.14,10.96   l3.24-10.96H32.07z"></path>
	<path d="M44.49,109.57c0-1.67,1.07-2.41,2.47-2.41c1.24,0,2.41,0.74,2.41,2.41c0,1.7-1.17,2.34-2.41,2.34   C45.56,111.91,44.49,111.27,44.49,109.57z M44.99,114.78h4.04v15.23h-4.04V114.78z"></path>
	<path d="M62.09,119.06c-0.9-0.9-2.17-1.57-3.67-1.57c-1.4,0-2.07,0.67-2.07,1.47c0,0.7,0.43,1.24,1.4,1.44l2.54,0.6   c3.04,0.67,4.34,2.3,4.34,4.51c0,2.4-1.64,4.88-6.61,4.88c-3.27,0-5.24-1.37-6.21-2.57l2.3-2.41c0.87,0.94,2.17,1.97,4.08,1.97   c1.37,0,2.34-0.5,2.34-1.5c0-0.67-0.5-1.2-1.54-1.44l-2.64-0.63c-2.67-0.67-4.01-2.24-4.01-4.44c0-2.2,1.64-4.91,6.25-4.91   c3.01,0,4.74,1.14,5.75,2.24L62.09,119.06z"></path>
	<path d="M76.82,119.06c-0.9-0.9-2.17-1.57-3.67-1.57c-1.4,0-2.07,0.67-2.07,1.47c0,0.7,0.43,1.24,1.4,1.44l2.54,0.6   c3.04,0.67,4.34,2.3,4.34,4.51c0,2.4-1.64,4.88-6.61,4.88c-3.27,0-5.24-1.37-6.21-2.57l2.3-2.41c0.87,0.94,2.17,1.97,4.08,1.97   c1.37,0,2.34-0.5,2.34-1.5c0-0.67-0.5-1.2-1.54-1.44l-2.64-0.63c-2.67-0.67-4.01-2.24-4.01-4.44c0-2.2,1.64-4.91,6.25-4.91   c3.01,0,4.74,1.14,5.75,2.24L76.82,119.06z"></path>
	<path d="M89.35,107.43h7.11c7.72,0,11.16,3.44,11.16,11.29c0,7.82-3.44,11.29-11.16,11.29h-7.11V107.43z M96.19,126.41   c5.14,0,6.88-1.9,6.88-7.68c0-5.61-1.74-7.68-6.88-7.68h-2.44v15.36H96.19z"></path>
	<path d="M110.42,109.57c0-1.67,1.07-2.41,2.47-2.41c1.24,0,2.41,0.74,2.41,2.41c0,1.7-1.17,2.34-2.41,2.34   C111.49,111.91,110.42,111.27,110.42,109.57z M110.92,114.78h4.04v15.23h-4.04V114.78z"></path>
	<path d="M128.02,119.06c-0.9-0.9-2.17-1.57-3.67-1.57c-1.4,0-2.07,0.67-2.07,1.47c0,0.7,0.43,1.24,1.4,1.44l2.54,0.6   c3.04,0.67,4.34,2.3,4.34,4.51c0,2.4-1.64,4.88-6.61,4.88c-3.27,0-5.24-1.37-6.21-2.57l2.3-2.41c0.87,0.94,2.17,1.97,4.08,1.97   c1.37,0,2.34-0.5,2.34-1.5c0-0.67-0.5-1.2-1.54-1.44l-2.64-0.63c-2.67-0.67-4.01-2.24-4.01-4.44c0-2.2,1.64-4.91,6.25-4.91   c3.01,0,4.74,1.14,5.75,2.24L128.02,119.06z"></path>
	<path d="M139.04,125c0,1.13,0.6,1.64,1.67,1.64c0.53,0,1.24-0.1,1.8-0.27l0.07,3.51c-0.77,0.3-2.1,0.5-3.24,0.5   c-3.14,0-4.34-2.04-4.34-4.81v-7.38h-2.77v-3.07l2.77-0.33v-3.71l4.04-0.63v4.34h3.41v3.41h-3.41V125z"></path>
	<path d="M153.94,130.01v-1.77c-0.97,1.14-2.54,2.14-4.84,2.14c-2.67,0-4.48-1.7-4.48-4.44c0-3.34,2.87-4.81,7.38-5.11l1.67-0.13   v-0.97c0-1.27-0.53-2.1-2.44-2.1c-1.57,0-2.34,0.63-2.34,1.47v0.6h-3.51c-0.07-0.33-0.1-0.73-0.1-1.04c0-2.5,2.37-4.21,6.21-4.21   c3.74,0,6.25,1.57,6.25,5.24v10.32H153.94z M150.63,127.31c1.17,0,2.3-0.57,3.04-1.3v-2.87l-1.64,0.23c-2.17,0.3-3.31,1-3.31,2.3   C148.73,126.74,149.43,127.31,150.63,127.31z"></path>
	<path d="M161.39,114.78h3.91v1.74c0.8-1.14,2.27-2.07,4.71-2.07c3.44,0,5.21,2.1,5.21,6.05v9.52h-4.07v-9.05   c0-1.84-0.7-2.81-2.74-2.81c-1.17,0-2.37,0.57-2.97,1.14v10.72h-4.04V114.78z"></path>
	<path d="M185.2,114.45c2.81,0,5.04,1.14,6.11,3.41l-2.81,2c-0.67-1.1-1.57-1.84-2.97-1.84c-2.37,0-3.27,1.84-3.27,4.38   c0,2.54,0.9,4.41,3.27,4.41c1.4,0,2.34-0.77,2.97-1.87l2.81,2.04c-1.07,2.27-3.31,3.41-6.11,3.41c-5.04,0-7.05-3.67-7.05-7.98   C178.15,118.12,180.16,114.45,185.2,114.45z"></path>
	<path d="M204.54,125.54l1.9,2.64c-1.17,1.17-3.21,2.2-5.65,2.2c-5.28,0-7.52-3.34-7.52-7.98c0-4.31,2.37-7.95,7.08-7.95   c4.68,0,6.45,3.31,6.45,6.61c0,0.83-0.1,2-0.27,2.64h-9.19c0.1,2,1.24,3.24,3.44,3.24C202.03,126.94,203.4,126.47,204.54,125.54z    M203,120.83c0.03-0.2,0.07-0.4,0.07-0.5c0-1.8-1.27-2.64-2.71-2.64c-2,0-2.87,1.4-2.97,3.14H203z"></path>
	<path d="M1.27,153.1v-13.96h4.41V153c0,3.61,1.3,5.31,4.31,5.31c3.01,0,4.31-1.7,4.31-5.31v-13.86h4.41v13.96   c0,6.31-3.57,8.95-8.72,8.95C4.85,162.05,1.27,159.38,1.27,153.1z"></path>
	<path d="M22.48,146.48h3.91v1.74c0.8-1.14,2.27-2.07,4.71-2.07c3.44,0,5.21,2.1,5.21,6.05v9.52h-4.07v-9.05   c0-1.84-0.7-2.81-2.74-2.81c-1.17,0-2.37,0.57-2.97,1.14v10.72h-4.04V146.48z"></path>
	<path d="M39.45,141.27c0-1.67,1.07-2.41,2.47-2.41c1.24,0,2.41,0.74,2.41,2.41c0,1.7-1.17,2.34-2.41,2.34   C40.52,143.61,39.45,142.97,39.45,141.27z M39.95,146.48h4.04v15.23h-4.04V146.48z"></path>
	<path d="M62.19,146.48l-5.48,15.23h-4.88l-5.58-15.23h4.38l3.64,11.29l3.57-11.29H62.19z"></path>
	<path d="M74.62,157.24l1.9,2.64c-1.17,1.17-3.21,2.2-5.65,2.2c-5.28,0-7.52-3.34-7.52-7.98c0-4.31,2.37-7.95,7.08-7.95   c4.68,0,6.45,3.31,6.45,6.61c0,0.83-0.1,2-0.27,2.64h-9.19c0.1,2,1.24,3.24,3.44,3.24C72.11,158.64,73.48,158.17,74.62,157.24z    M73.08,152.53c0.03-0.2,0.07-0.4,0.07-0.5c0-1.8-1.27-2.64-2.71-2.64c-2,0-2.87,1.4-2.97,3.14H73.08z"></path>
	<path d="M83.87,148.89c0.77-1.37,1.94-2.74,4.08-2.74c0.63,0,1.24,0.07,1.74,0.2l-0.3,4.28c-0.7-0.17-1.7-0.3-2.44-0.3   c-1.34,0-2.37,0.73-2.94,1.8v9.59h-4.04v-15.23h3.87v2.41H83.87z"></path>
	<path d="M101.27,150.76c-0.9-0.9-2.17-1.57-3.67-1.57c-1.4,0-2.07,0.67-2.07,1.47c0,0.7,0.43,1.24,1.4,1.44l2.54,0.6   c3.04,0.67,4.34,2.3,4.34,4.51c0,2.4-1.64,4.88-6.61,4.88c-3.27,0-5.24-1.37-6.21-2.57l2.3-2.41c0.87,0.94,2.17,1.97,4.08,1.97   c1.37,0,2.34-0.5,2.34-1.5c0-0.67-0.5-1.2-1.54-1.44l-2.64-0.63c-2.67-0.67-4.01-2.24-4.01-4.44c0-2.2,1.64-4.91,6.25-4.91   c3.01,0,4.74,1.14,5.75,2.24L101.27,150.76z"></path>
	<path d="M106.28,141.27c0-1.67,1.07-2.41,2.47-2.41c1.24,0,2.41,0.74,2.41,2.41c0,1.7-1.17,2.34-2.41,2.34   C107.35,143.61,106.28,142.97,106.28,141.27z M106.78,146.48h4.04v15.23h-4.04V146.48z"></path>
	<path d="M120.17,156.7c0,1.13,0.6,1.64,1.67,1.64c0.53,0,1.24-0.1,1.8-0.27l0.07,3.51c-0.77,0.3-2.1,0.5-3.24,0.5   c-3.14,0-4.34-2.04-4.34-4.81v-7.38h-2.77v-3.07l2.77-0.33v-3.71l4.04-0.63v4.34h3.41v3.41h-3.41V156.7z"></path>
	<path d="M133.13,156.4l3.41-9.92h4.34l-8.92,22.45h-4.11l3.27-7.88l-6.25-14.56h4.54L133.13,156.4z"></path>
	<path d="M162.69,154.06c0,4.68-2.27,8.02-7.28,8.02c-4.78,0-7.11-3.41-7.11-7.95c0-4.64,2.24-7.98,7.25-7.98   C160.35,146.15,162.69,149.49,162.69,154.06z M158.55,154.13c0-2.87-0.97-4.34-3.11-4.34c-2.07,0-3.04,1.47-3.04,4.28   c0,2.94,1,4.38,3.07,4.38C157.58,158.44,158.55,156.9,158.55,154.13z"></path>
	<path d="M174.58,142.11h-1.9c-1.34,0-1.74,0.8-1.74,2.14v2.24h3.94v3.44h-3.94v11.79h-4.04v-11.79h-2.4v-3.11l2.4-0.33v-2.27   c0-3.61,1.8-5.54,5.54-5.54h2.14V142.11z"></path>
	<path d="M195.19,156.6h-8.18l-1.64,5.11h-4.68l7.88-22.58h5.04l7.92,22.58h-4.71L195.19,156.6z M188.11,153h6.01l-3.01-9.35   L188.11,153z"></path>
	<path d="M207.48,168.93h-4.04v-22.45h3.84v1.27c0.94-0.9,2.4-1.6,4.28-1.6c4.04,0,6.35,2.94,6.35,8.02c0,4.98-2.24,7.92-6.38,7.92   c-1.94,0-3.34-0.77-4.04-1.47V168.93z M210.42,149.86c-1.4,0-2.37,0.5-2.94,1.07v6.41c0.57,0.47,1.5,1,2.91,1   c2.57,0,3.37-1.74,3.37-4.17S212.99,149.86,210.42,149.86z"></path>
	<path d="M225.08,168.93h-4.04v-22.45h3.84v1.27c0.94-0.9,2.4-1.6,4.28-1.6c4.04,0,6.35,2.94,6.35,8.02c0,4.98-2.24,7.92-6.38,7.92   c-1.94,0-3.34-0.77-4.04-1.47V168.93z M228.02,149.86c-1.4,0-2.37,0.5-2.94,1.07v6.41c0.57,0.47,1.5,1,2.91,1   c2.57,0,3.37-1.74,3.37-4.17S230.59,149.86,228.02,149.86z"></path>
	<path d="M242.58,138.67v18.1c0,0.97,0.3,1.37,1.3,1.37h0.73v3.74h-2.07c-3.11,0-4.01-1.97-4.01-4.51v-18.71H242.58z"></path>
	<path d="M246.82,141.27c0-1.67,1.07-2.41,2.47-2.41c1.24,0,2.41,0.74,2.41,2.41c0,1.7-1.17,2.34-2.41,2.34   C247.89,143.61,246.82,142.97,246.82,141.27z M247.32,146.48h4.04v15.23h-4.04V146.48z"></path>
	<path d="M265.76,157.24l1.9,2.64c-1.17,1.17-3.21,2.2-5.64,2.2c-5.28,0-7.52-3.34-7.52-7.98c0-4.31,2.37-7.95,7.08-7.95   c4.68,0,6.45,3.31,6.45,6.61c0,0.83-0.1,2-0.27,2.64h-9.19c0.1,2,1.24,3.24,3.44,3.24C263.26,158.64,264.63,158.17,265.76,157.24z    M264.23,152.53c0.03-0.2,0.07-0.4,0.07-0.5c0-1.8-1.27-2.64-2.71-2.64c-2,0-2.87,1.4-2.97,3.14H264.23z"></path>
	<path d="M280.79,138.67h4.04v23.05h-3.84v-1.24c-0.94,0.9-2.37,1.6-4.21,1.6c-4.04,0-6.28-2.94-6.28-8.02   c0-4.98,2.21-7.92,6.31-7.92c1.9,0,3.31,0.77,3.97,1.47V138.67z M277.92,158.34c1.37,0,2.3-0.47,2.87-1.04v-6.41   c-0.53-0.47-1.47-1.04-2.87-1.04c-2.5,0-3.31,1.77-3.31,4.21C274.61,156.5,275.38,158.34,277.92,158.34z"></path>
	<path d="M13,176.28c-0.83-1.24-2.24-2.04-4.31-2.04s-3.21,1.2-3.21,2.84c0,1.34,0.67,2.17,2.34,2.71l2.87,0.87   c4.04,1.27,5.51,3.34,5.51,6.21c0,4.38-3.41,6.91-8.12,6.91c-4.98,0-7.15-2.37-8.08-4.14l3.01-2.47c0.83,1.57,2,2.87,5.08,2.87   c2.3,0,3.57-1.13,3.57-2.84c0-1.4-0.83-2.2-2.54-2.74l-2.84-0.87c-3.94-1.24-5.34-3.44-5.34-6.25c0-3.51,2.2-6.85,7.75-6.85   c3.91,0,6.11,1.6,7.31,3.34L13,176.28z"></path>
	<path d="M25.75,177.85c2.81,0,5.04,1.14,6.11,3.41l-2.81,2c-0.67-1.1-1.57-1.84-2.97-1.84c-2.37,0-3.27,1.84-3.27,4.38   c0,2.54,0.9,4.41,3.27,4.41c1.4,0,2.34-0.77,2.97-1.87l2.81,2.04c-1.07,2.27-3.31,3.41-6.11,3.41c-5.04,0-7.05-3.67-7.05-7.98   C18.71,181.52,20.71,177.85,25.75,177.85z"></path>
	<path d="M34.04,172.97c0-1.67,1.07-2.41,2.47-2.41c1.24,0,2.41,0.74,2.41,2.41c0,1.7-1.17,2.34-2.41,2.34   C35.11,175.31,34.04,174.67,34.04,172.97z M34.54,178.18h4.04v15.23h-4.04V178.18z"></path>
	<path d="M52.97,188.94l1.9,2.64c-1.17,1.17-3.21,2.2-5.65,2.2c-5.28,0-7.52-3.34-7.52-7.98c0-4.31,2.37-7.95,7.08-7.95   c4.68,0,6.45,3.31,6.45,6.61c0,0.83-0.1,2-0.27,2.64h-9.19c0.1,2,1.24,3.24,3.44,3.24C50.47,190.34,51.84,189.87,52.97,188.94z    M51.44,184.23c0.03-0.2,0.07-0.4,0.07-0.5c0-1.8-1.27-2.64-2.71-2.64c-2,0-2.87,1.4-2.97,3.14H51.44z"></path>
	<path d="M58.32,178.18h3.91v1.74c0.8-1.14,2.27-2.07,4.71-2.07c3.44,0,5.21,2.1,5.21,6.05v9.52h-4.07v-9.05   c0-1.84-0.7-2.81-2.74-2.81c-1.17,0-2.37,0.57-2.97,1.14v10.72h-4.04V178.18z"></path>
	<path d="M82.13,177.85c2.81,0,5.04,1.14,6.11,3.41l-2.81,2c-0.67-1.1-1.57-1.84-2.97-1.84c-2.37,0-3.27,1.84-3.27,4.38   c0,2.54,0.9,4.41,3.27,4.41c1.4,0,2.34-0.77,2.97-1.87l2.81,2.04c-1.07,2.27-3.31,3.41-6.11,3.41c-5.04,0-7.05-3.67-7.05-7.98   C75.08,181.52,77.09,177.85,82.13,177.85z"></path>
	<path d="M101.47,188.94l1.9,2.64c-1.17,1.17-3.21,2.2-5.65,2.2c-5.28,0-7.52-3.34-7.52-7.98c0-4.31,2.37-7.95,7.08-7.95   c4.68,0,6.45,3.31,6.45,6.61c0,0.83-0.1,2-0.27,2.64h-9.19c0.1,2,1.24,3.24,3.44,3.24C98.97,190.34,100.33,189.87,101.47,188.94z    M99.93,184.23c0.03-0.2,0.07-0.4,0.07-0.5c0-1.8-1.27-2.64-2.71-2.64c-2,0-2.87,1.4-2.97,3.14H99.93z"></path>
	<path d="M116.07,182.46c-0.9-0.9-2.17-1.57-3.67-1.57c-1.4,0-2.07,0.67-2.07,1.47c0,0.7,0.43,1.24,1.4,1.44l2.54,0.6   c3.04,0.67,4.34,2.3,4.34,4.51c0,2.4-1.64,4.88-6.61,4.88c-3.27,0-5.24-1.37-6.21-2.57l2.3-2.41c0.87,0.94,2.17,1.97,4.08,1.97   c1.37,0,2.34-0.5,2.34-1.5c0-0.67-0.5-1.2-1.54-1.44l-2.64-0.63c-2.67-0.67-4.01-2.24-4.01-4.44c0-2.2,1.64-4.91,6.25-4.91   c3.01,0,4.74,1.14,5.75,2.24L116.07,182.46z"></path>
	<path d="M12.38,204.93h2.49l1.9,14.75h-1.81l-1.55-12.52l-4,12.52H7.38l-3.93-12.52l-1.59,12.52H0.02l1.99-14.75h2.58l3.84,12.37   L12.38,204.93z"></path>
	<path d="M25.93,217.33l0.87,1.18c-0.65,0.72-2.05,1.4-3.58,1.4c-3.28,0-4.56-2.16-4.56-5.21c0-2.86,1.38-5.17,4.37-5.17   c2.79,0,4,2.05,4,4.19c0,0.48-0.07,1.13-0.13,1.55H20.4c0.04,1.88,0.85,3.14,2.82,3.14C24.07,218.4,25.18,218.05,25.93,217.33z    M25.31,213.92c0.02-0.13,0.04-0.33,0.04-0.44c0-1.5-0.87-2.51-2.34-2.51c-1.79,0-2.49,1.29-2.6,2.95H25.31z"></path>
	<path d="M29.41,209.73h1.7v1.16c0.66-0.72,1.64-1.37,2.95-1.37c1.64,0,2.51,0.59,3.17,1.53c0.72-0.85,1.92-1.53,3.45-1.53   c2.51,0,3.54,1.31,3.54,3.71v6.46h-1.75v-6.35c0-1.46-0.59-2.2-2.16-2.2c-1.16,0-2.01,0.5-2.58,1.16v7.4h-1.73v-7.29   c-0.41-0.81-1.16-1.27-2.31-1.27c-1.11,0-1.92,0.55-2.53,1.13v7.42h-1.75V209.73z"></path>
	<path d="M48.81,210.67c0.52-0.61,1.33-1.16,2.75-1.16c2.97,0,4.28,2.03,4.28,5.17c0,3.14-1.35,5.21-4.28,5.21   c-1.48,0-2.45-0.54-3.01-1.18l-0.5,0.96h-0.98v-15.06h1.75V210.67z M51.26,211.13c-1.33,0-2.12,0.7-2.45,1.2v4.69   c0.37,0.59,1.2,1.27,2.45,1.27c2.18,0,2.82-1.55,2.82-3.6C54.07,212.61,53.42,211.13,51.26,211.13z"></path>
	<path d="M65.07,217.33l0.87,1.18c-0.65,0.72-2.05,1.4-3.58,1.4c-3.28,0-4.56-2.16-4.56-5.21c0-2.86,1.38-5.17,4.37-5.17   c2.79,0,4,2.05,4,4.19c0,0.48-0.07,1.13-0.13,1.55h-6.48c0.04,1.88,0.85,3.14,2.82,3.14C63.21,218.4,64.33,218.05,65.07,217.33z    M64.46,213.92c0.02-0.13,0.04-0.33,0.04-0.44c0-1.5-0.87-2.51-2.34-2.51c-1.79,0-2.49,1.29-2.6,2.95H64.46z"></path>
	<path d="M70.28,211.37c0.5-0.98,1.31-1.85,2.77-1.85c0.44,0,0.87,0.04,1.2,0.15l-0.2,1.83c-0.39-0.11-0.94-0.2-1.33-0.2   c-1.22,0-1.94,0.81-2.42,1.88v6.5h-1.75v-9.95h1.7v1.64H70.28z"></path>
	<path d="M88.81,214.69c0,3.03-1.33,5.21-4.54,5.21c-3.04,0-4.43-2.2-4.43-5.19s1.35-5.19,4.5-5.19   C87.46,209.51,88.81,211.72,88.81,214.69z M87.02,214.71c0-2.23-0.76-3.6-2.73-3.6c-1.88,0-2.69,1.38-2.69,3.58   c0,2.25,0.81,3.62,2.69,3.62C86.26,218.31,87.02,216.91,87.02,214.71z"></path>
	<path d="M96.18,206.15h-1.07c-1.18,0-1.51,0.76-1.51,1.99v1.59h2.9v1.53h-2.9v8.42h-1.75v-8.42h-1.7v-1.31l1.7-0.22v-1.59   c0-2.14,0.92-3.51,3.19-3.51h1.14V206.15z"></path>
	<path d="M110.43,207.9c-0.61-0.98-1.66-1.55-3.19-1.55c-1.88,0-2.84,1.13-2.84,2.55c0,1.24,0.7,1.83,2.1,2.25l1.96,0.59   c2.21,0.68,3.56,1.77,3.56,3.86c0,2.55-1.9,4.3-5.04,4.3c-3.32,0-4.5-1.59-5.07-2.79l1.42-0.96c0.5,1.11,1.29,2.12,3.65,2.12   c2.07,0,3.1-1.03,3.1-2.55c0-1.29-0.92-1.9-2.25-2.29l-1.97-0.59c-2.21-0.68-3.38-1.9-3.38-3.84c0-2.23,1.48-4.28,4.76-4.28   c2.38,0,3.89,1.03,4.56,2.16L110.43,207.9z"></path>
	<path d="M114.68,214.18v-9.25h1.88v9.27c0,2.9,1.24,4.06,3.56,4.06c2.29,0,3.56-1.16,3.56-4.06v-9.27h1.88v9.25   c0,4.15-2.25,5.72-5.44,5.72S114.68,218.31,114.68,214.18z"></path>
	<path d="M130.9,213.88v5.8h-1.88v-14.75h4.69c3.38,0,4.96,1.7,4.96,4.47c0,2.75-1.57,4.47-4.96,4.47H130.9z M130.9,212.29h2.71   c2.36,0,3.14-1.18,3.14-2.88c0-1.68-0.79-2.88-3.14-2.88h-2.71V212.29z"></path>
	<path d="M148.82,207.9c-0.61-0.98-1.66-1.55-3.19-1.55c-1.88,0-2.84,1.13-2.84,2.55c0,1.24,0.7,1.83,2.1,2.25l1.96,0.59   c2.21,0.68,3.56,1.77,3.56,3.86c0,2.55-1.9,4.3-5.04,4.3c-3.32,0-4.5-1.59-5.07-2.79l1.42-0.96c0.5,1.11,1.29,2.12,3.65,2.12   c2.07,0,3.1-1.03,3.1-2.55c0-1.29-0.92-1.9-2.25-2.29l-1.97-0.59c-2.21-0.68-3.38-1.9-3.38-3.84c0-2.23,1.48-4.28,4.76-4.28   c2.38,0,3.89,1.03,4.56,2.16L148.82,207.9z"></path>
	<path d="M153.2,204.93h1.88v14.75h-1.88V204.93z"></path>
</g>
</svg>
