<?xml version="1.0" encoding="UTF-8"?>
<!-- Generator: Adobe Illustrator 24.2.3, SVG Export Plug-In . SVG Version: 6.00 Build 0)  -->
<svg xmlns="http://www.w3.org/2000/svg" xmlns:xlink="http://www.w3.org/1999/xlink" version="1.1" id="Layer_1" x="0px" y="0px" viewBox="0 0 741.69 100.06" style="enable-background:new 0 0 741.69 100.06;" xml:space="preserve">
<style type="text/css">
	.st0{fill:url(#SVGID_1_);}
	.st1{fill:url(#SVGID_2_);}
	.st2{fill:url(#SVGID_3_);}
	.st3{fill:url(#SVGID_4_);}
</style>
<g>
	<linearGradient id="SVGID_1_" gradientUnits="userSpaceOnUse" x1="0.8141" y1="47.6429" x2="305.348" y2="47.6429">
		<stop offset="0" style="stop-color:#D50006"></stop>
		<stop offset="1" style="stop-color:#51247A"></stop>
	</linearGradient>
	<polygon class="st0" points="190.72,38.48 153.88,38.48 153.88,1.16 141.46,1.16 134.89,19.22 134.89,94.13 153.88,94.13    153.88,56.55 190.72,56.55 190.72,94.13 203.5,94.13 209.71,77.05 209.71,1.16 190.72,1.16  "></polygon>
	<linearGradient id="SVGID_2_" gradientUnits="userSpaceOnUse" x1="0.8141" y1="47.3698" x2="305.348" y2="47.3698">
		<stop offset="0" style="stop-color:#D50006"></stop>
		<stop offset="1" style="stop-color:#51247A"></stop>
	</linearGradient>
	<path class="st1" d="M262.81,40.46l-7.46-2.75c-9.82-3.54-14.41-6.02-14.41-11.65c0-5.5,6.03-8.25,12.44-8.25   c2.67,0,13.39,0,20.67,0L280.54,0c-0.02,0-17.49,0-28.85,0c-18.07,0-29.86,10.34-29.86,27.89c0,12.7,7.98,21.34,22.91,26.58   l7.86,2.75c9.17,3.14,12.96,5.43,12.96,10.67c0,5.37-4.97,9.03-12.44,9.03c-3.51,0-17.43,0-26,0l-6.47,17.81c0.7,0,18.71,0,33.19,0   c19.25,0,30.96-11.39,31.09-28.02C284.94,52.71,276.43,45.44,262.81,40.46z"></path>
	<linearGradient id="SVGID_3_" gradientUnits="userSpaceOnUse" x1="0.8141" y1="47.6429" x2="305.348" y2="47.6429">
		<stop offset="0" style="stop-color:#D50006"></stop>
		<stop offset="1" style="stop-color:#51247A"></stop>
	</linearGradient>
	<polygon class="st2" points="1.47,94.13 20.46,94.13 20.46,56.55 42.82,56.55 49.4,38.48 20.46,38.48 20.46,19.23 51.46,19.23    58.04,1.16 1.47,1.16  "></polygon>
	<linearGradient id="SVGID_4_" gradientUnits="userSpaceOnUse" x1="0.8141" y1="47.6429" x2="305.348" y2="47.6429">
		<stop offset="0" style="stop-color:#D50006"></stop>
		<stop offset="1" style="stop-color:#51247A"></stop>
	</linearGradient>
	<polygon class="st3" points="69.63,94.13 88.62,94.13 88.62,56.55 110.62,56.55 117.56,38.48 88.62,38.48 88.62,19.23    119.62,19.23 126.2,1.16 69.63,1.16  "></polygon>
</g>
<g>
	<path d="M328.4,6.72c-0.97-1.44-2.6-2.37-5.01-2.37s-3.73,1.4-3.73,3.3c0,1.55,0.78,2.52,2.72,3.14l3.34,1.01   c4.7,1.47,6.41,3.88,6.41,7.22c0,5.08-3.96,8.03-9.44,8.03c-5.79,0-8.31-2.75-9.4-4.81l3.5-2.87c0.97,1.82,2.33,3.34,5.9,3.34   c2.68,0,4.16-1.32,4.16-3.3c0-1.63-0.97-2.56-2.95-3.18l-3.3-1.01c-4.58-1.44-6.21-4-6.21-7.26c0-4.07,2.56-7.96,9.01-7.96   c4.54,0,7.11,1.86,8.5,3.88L328.4,6.72z"></path>
	<path d="M351.16,8.93l3.81,12.73l3.57-12.73h4.85l-5.44,17.69h-5.13l-3.88-11.72l-3.84,11.72h-5.16L334.5,8.93h4.82l3.65,12.73   l3.77-12.73H351.16z"></path>
	<path d="M366.18,2.88c0-1.94,1.24-2.79,2.87-2.79c1.44,0,2.8,0.85,2.8,2.79c0,1.98-1.36,2.72-2.8,2.72   C367.42,5.59,366.18,4.86,366.18,2.88z M366.76,8.93h4.7v17.69h-4.7V8.93z"></path>
	<path d="M387.23,13.9c-1.05-1.05-2.52-1.82-4.27-1.82c-1.63,0-2.41,0.78-2.41,1.71c0,0.81,0.5,1.44,1.63,1.67l2.95,0.7   c3.53,0.78,5.05,2.68,5.05,5.24c0,2.79-1.9,5.67-7.69,5.67c-3.81,0-6.1-1.59-7.22-2.99l2.68-2.79c1.01,1.09,2.52,2.29,4.74,2.29   c1.59,0,2.72-0.58,2.72-1.75c0-0.78-0.58-1.4-1.79-1.67l-3.07-0.74c-3.11-0.78-4.66-2.6-4.66-5.16c0-2.56,1.9-5.7,7.26-5.7   c3.5,0,5.51,1.32,6.68,2.6L387.23,13.9z"></path>
	<path d="M404.93,13.9c-1.05-1.05-2.52-1.82-4.27-1.82c-1.63,0-2.41,0.78-2.41,1.71c0,0.81,0.5,1.44,1.63,1.67l2.95,0.7   c3.53,0.78,5.05,2.68,5.05,5.24c0,2.79-1.9,5.67-7.69,5.67c-3.81,0-6.1-1.59-7.22-2.99l2.68-2.79c1.01,1.09,2.52,2.29,4.74,2.29   c1.59,0,2.72-0.58,2.72-1.75c0-0.78-0.58-1.4-1.79-1.67l-3.07-0.74c-3.11-0.78-4.66-2.6-4.66-5.16c0-2.56,1.9-5.7,7.26-5.7   c3.5,0,5.51,1.32,6.68,2.6L404.93,13.9z"></path>
	<path d="M420.66,0.39h8.27c8.97,0,12.97,4,12.97,13.12c0,9.08-4,13.12-12.97,13.12h-8.27V0.39z M428.62,22.43c5.98,0,8-2.21,8-8.92   c0-6.52-2.02-8.92-8-8.92h-2.83v17.85H428.62z"></path>
	<path d="M445.74,2.88c0-1.94,1.24-2.79,2.87-2.79c1.44,0,2.8,0.85,2.8,2.79c0,1.98-1.36,2.72-2.8,2.72   C446.98,5.59,445.74,4.86,445.74,2.88z M446.32,8.93h4.7v17.69h-4.7V8.93z"></path>
	<path d="M466.79,13.9c-1.05-1.05-2.52-1.82-4.27-1.82c-1.63,0-2.41,0.78-2.41,1.71c0,0.81,0.5,1.44,1.63,1.67l2.95,0.7   c3.53,0.78,5.05,2.68,5.05,5.24c0,2.79-1.9,5.67-7.69,5.67c-3.81,0-6.1-1.59-7.22-2.99l2.68-2.79c1.01,1.09,2.52,2.29,4.74,2.29   c1.59,0,2.72-0.58,2.72-1.75c0-0.78-0.58-1.4-1.79-1.67l-3.07-0.74c-3.11-0.78-4.66-2.6-4.66-5.16c0-2.56,1.9-5.7,7.26-5.7   c3.5,0,5.51,1.32,6.68,2.6L466.79,13.9z"></path>
	<path d="M480.18,20.8c0,1.32,0.7,1.9,1.94,1.9c0.62,0,1.44-0.12,2.1-0.31l0.08,4.07c-0.89,0.35-2.45,0.58-3.77,0.58   c-3.65,0-5.05-2.37-5.05-5.59v-8.58h-3.22V9.32l3.22-0.39V4.62l4.7-0.74v5.04h3.96v3.96h-3.96V20.8z"></path>
	<path d="M498.08,26.62v-2.06c-1.13,1.32-2.95,2.48-5.63,2.48c-3.11,0-5.2-1.98-5.2-5.16c0-3.88,3.34-5.59,8.58-5.94l1.94-0.16   v-1.12c0-1.47-0.62-2.44-2.83-2.44c-1.83,0-2.72,0.74-2.72,1.71v0.7h-4.08c-0.08-0.39-0.12-0.85-0.12-1.2   c0-2.91,2.76-4.89,7.22-4.89c4.35,0,7.26,1.82,7.26,6.09v11.99H498.08z M494.24,23.48c1.36,0,2.68-0.66,3.53-1.51v-3.34l-1.9,0.27   c-2.52,0.35-3.84,1.16-3.84,2.68C492.02,22.82,492.84,23.48,494.24,23.48z"></path>
	<path d="M507.32,8.93h4.54v2.02c0.93-1.32,2.64-2.41,5.48-2.41c4,0,6.06,2.44,6.06,7.02v11.06h-4.74V16.11   c0-2.13-0.82-3.26-3.18-3.26c-1.36,0-2.76,0.66-3.46,1.32v12.46h-4.7V8.93z"></path>
	<path d="M535.59,8.54c3.26,0,5.86,1.32,7.11,3.96l-3.26,2.33c-0.78-1.28-1.83-2.13-3.46-2.13c-2.76,0-3.81,2.13-3.81,5.08   c0,2.95,1.05,5.12,3.81,5.12c1.63,0,2.72-0.89,3.46-2.17l3.26,2.37c-1.24,2.64-3.84,3.96-7.11,3.96c-5.86,0-8.19-4.27-8.19-9.27   C527.4,12.81,529.73,8.54,535.59,8.54z"></path>
	<path d="M558.66,21.43l2.21,3.07c-1.36,1.36-3.73,2.56-6.56,2.56c-6.14,0-8.74-3.88-8.74-9.27c0-5.01,2.76-9.24,8.23-9.24   c5.44,0,7.5,3.84,7.5,7.68c0,0.97-0.12,2.33-0.31,3.07h-10.68c0.12,2.33,1.44,3.76,4,3.76C555.74,23.05,557.33,22.51,558.66,21.43z    M556.87,15.95c0.04-0.23,0.08-0.47,0.08-0.58c0-2.1-1.48-3.07-3.15-3.07c-2.33,0-3.34,1.63-3.46,3.65H556.87z"></path>
	<path d="M573.99,16.61V0.39h5.13v16.1c0,4.19,1.51,6.17,5.01,6.17c3.49,0,5.01-1.98,5.01-6.17V0.39h5.13v16.22   c0,7.33-4.16,10.4-10.13,10.4C578.15,27.01,573.99,23.91,573.99,16.61z"></path>
	<path d="M599.23,8.93h4.54v2.02c0.93-1.32,2.64-2.41,5.48-2.41c4,0,6.06,2.44,6.06,7.02v11.06h-4.74V16.11   c0-2.13-0.82-3.26-3.18-3.26c-1.36,0-2.76,0.66-3.46,1.32v12.46h-4.7V8.93z"></path>
	<path d="M619.54,2.88c0-1.94,1.24-2.79,2.87-2.79c1.44,0,2.8,0.85,2.8,2.79c0,1.98-1.36,2.72-2.8,2.72   C620.78,5.59,619.54,4.86,619.54,2.88z M620.12,8.93h4.7v17.69h-4.7V8.93z"></path>
	<path d="M646.56,8.93l-6.37,17.69h-5.67l-6.49-17.69h5.09l4.23,13.12l4.16-13.12H646.56z"></path>
	<path d="M661.59,21.43l2.21,3.07c-1.36,1.36-3.73,2.56-6.56,2.56c-6.14,0-8.74-3.88-8.74-9.27c0-5.01,2.76-9.24,8.23-9.24   c5.44,0,7.5,3.84,7.5,7.68c0,0.97-0.12,2.33-0.31,3.07h-10.68c0.12,2.33,1.44,3.76,4,3.76C658.68,23.05,660.27,22.51,661.59,21.43z    M659.8,15.95c0.04-0.23,0.08-0.47,0.08-0.58c0-2.1-1.48-3.07-3.15-3.07c-2.33,0-3.34,1.63-3.46,3.65H659.8z"></path>
	<path d="M672.93,11.72c0.89-1.59,2.25-3.18,4.74-3.18c0.74,0,1.44,0.08,2.02,0.23l-0.35,4.97c-0.82-0.19-1.98-0.35-2.83-0.35   c-1.55,0-2.76,0.85-3.42,2.09v11.14h-4.7V8.93h4.5v2.79H672.93z"></path>
	<path d="M693.74,13.9c-1.05-1.05-2.52-1.82-4.27-1.82c-1.63,0-2.41,0.78-2.41,1.71c0,0.81,0.5,1.44,1.63,1.67l2.95,0.7   c3.53,0.78,5.05,2.68,5.05,5.24c0,2.79-1.9,5.67-7.69,5.67c-3.81,0-6.1-1.59-7.22-2.99l2.68-2.79c1.01,1.09,2.52,2.29,4.74,2.29   c1.59,0,2.72-0.58,2.72-1.75c0-0.78-0.58-1.4-1.79-1.67l-3.07-0.74c-3.11-0.78-4.66-2.6-4.66-5.16c0-2.56,1.9-5.7,7.26-5.7   c3.5,0,5.51,1.32,6.68,2.6L693.74,13.9z"></path>
	<path d="M700.14,2.88c0-1.94,1.24-2.79,2.87-2.79c1.44,0,2.8,0.85,2.8,2.79c0,1.98-1.36,2.72-2.8,2.72   C701.39,5.59,700.14,4.86,700.14,2.88z M700.73,8.93h4.7v17.69h-4.7V8.93z"></path>
	<path d="M716.88,20.8c0,1.32,0.7,1.9,1.94,1.9c0.62,0,1.44-0.12,2.1-0.31l0.08,4.07c-0.89,0.35-2.45,0.58-3.77,0.58   c-3.65,0-5.05-2.37-5.05-5.59v-8.58h-3.22V9.32l3.22-0.39V4.62l4.7-0.74v5.04h3.96v3.96h-3.96V20.8z"></path>
	<path d="M732.53,20.46l3.96-11.52h5.05l-10.37,26.08h-4.78l3.81-9.16l-7.26-16.92h5.28L732.53,20.46z"></path>
	<path d="M330.46,54.54c0,5.43-2.64,9.31-8.47,9.31c-5.55,0-8.27-3.96-8.27-9.24c0-5.39,2.6-9.27,8.43-9.27   C327.74,45.34,330.46,49.22,330.46,54.54z M325.65,54.62c0-3.34-1.13-5.04-3.61-5.04c-2.41,0-3.53,1.71-3.53,4.97   c0,3.41,1.17,5.08,3.57,5.08C324.52,59.62,325.65,57.84,325.65,54.62z"></path>
	<path d="M344.87,40.65h-2.21c-1.55,0-2.02,0.93-2.02,2.48v2.6h4.58v4h-4.58v13.7h-4.7v-13.7h-2.8v-3.61l2.8-0.39v-2.64   c0-4.19,2.1-6.44,6.45-6.44h2.49V40.65z"></path>
	<path d="M369.99,57.49h-9.51l-1.9,5.94h-5.44l9.17-26.23h5.86l9.2,26.23h-5.48L369.99,57.49z M361.76,53.3h6.99l-3.5-10.86   L361.76,53.3z"></path>
	<path d="M384.86,71.81h-4.7V45.73h4.47v1.47c1.09-1.05,2.8-1.86,4.97-1.86c4.7,0,7.38,3.41,7.38,9.31c0,5.78-2.6,9.2-7.42,9.2   c-2.25,0-3.88-0.89-4.7-1.71V71.81z M388.28,49.65c-1.63,0-2.76,0.58-3.42,1.24v7.45c0.66,0.54,1.75,1.16,3.38,1.16   c2.99,0,3.92-2.02,3.92-4.85S391.27,49.65,388.28,49.65z"></path>
	<path d="M405.9,71.81h-4.7V45.73h4.47v1.47c1.09-1.05,2.8-1.86,4.97-1.86c4.7,0,7.38,3.41,7.38,9.31c0,5.78-2.6,9.2-7.42,9.2   c-2.25,0-3.88-0.89-4.7-1.71V71.81z M409.32,49.65c-1.63,0-2.76,0.58-3.42,1.24v7.45c0.66,0.54,1.75,1.16,3.38,1.16   c2.99,0,3.92-2.02,3.92-4.85S412.31,49.65,409.32,49.65z"></path>
	<path d="M426.83,36.65v21.03c0,1.13,0.35,1.59,1.51,1.59h0.85v4.35h-2.41c-3.61,0-4.66-2.29-4.66-5.24V36.65H426.83z"></path>
	<path d="M432.34,39.68c0-1.94,1.24-2.79,2.87-2.79c1.44,0,2.8,0.85,2.8,2.79c0,1.98-1.36,2.72-2.8,2.72   C433.59,42.39,432.34,41.66,432.34,39.68z M432.93,45.73h4.7v17.69h-4.7V45.73z"></path>
	<path d="M454.94,58.23l2.21,3.07c-1.36,1.36-3.73,2.56-6.56,2.56c-6.14,0-8.74-3.88-8.74-9.27c0-5.01,2.76-9.24,8.23-9.24   c5.44,0,7.5,3.84,7.5,7.68c0,0.97-0.12,2.33-0.31,3.07h-10.68c0.12,2.33,1.44,3.76,4,3.76C452.03,59.85,453.62,59.31,454.94,58.23z    M453.16,52.75c0.04-0.23,0.08-0.47,0.08-0.58c0-2.1-1.48-3.07-3.15-3.07c-2.33,0-3.34,1.63-3.46,3.65H453.16z"></path>
	<path d="M473,36.65h4.7v26.77h-4.47v-1.44c-1.09,1.05-2.76,1.86-4.89,1.86c-4.7,0-7.3-3.42-7.3-9.31c0-5.78,2.56-9.2,7.34-9.2   c2.21,0,3.84,0.89,4.62,1.71V36.65z M469.66,59.51c1.59,0,2.68-0.54,3.34-1.2v-7.45c-0.62-0.54-1.71-1.2-3.34-1.2   c-2.91,0-3.84,2.06-3.84,4.89C465.81,57.37,466.71,59.51,469.66,59.51z"></path>
	<path d="M504.84,43.52c-0.97-1.44-2.6-2.37-5.01-2.37c-2.41,0-3.73,1.4-3.73,3.3c0,1.55,0.78,2.52,2.72,3.14l3.34,1.01   c4.7,1.47,6.41,3.88,6.41,7.22c0,5.08-3.96,8.03-9.44,8.03c-5.79,0-8.31-2.75-9.4-4.81l3.5-2.87c0.97,1.82,2.33,3.34,5.9,3.34   c2.68,0,4.16-1.32,4.16-3.3c0-1.63-0.97-2.56-2.95-3.18l-3.3-1.01c-4.58-1.44-6.21-4-6.21-7.26c0-4.07,2.56-7.96,9.01-7.96   c4.54,0,7.11,1.86,8.5,3.88L504.84,43.52z"></path>
	<path d="M520.25,45.34c3.26,0,5.86,1.32,7.11,3.96l-3.26,2.33c-0.78-1.28-1.83-2.13-3.46-2.13c-2.76,0-3.81,2.13-3.81,5.08   c0,2.95,1.05,5.12,3.81,5.12c1.63,0,2.72-0.89,3.46-2.17l3.26,2.37c-1.24,2.64-3.84,3.96-7.11,3.96c-5.86,0-8.19-4.27-8.19-9.27   C512.06,49.61,514.39,45.34,520.25,45.34z"></path>
	<path d="M530.46,39.68c0-1.94,1.24-2.79,2.87-2.79c1.44,0,2.8,0.85,2.8,2.79c0,1.98-1.36,2.72-2.8,2.72   C531.71,42.39,530.46,41.66,530.46,39.68z M531.05,45.73h4.7v17.69h-4.7V45.73z"></path>
	<path d="M553.06,58.23l2.21,3.07c-1.36,1.36-3.73,2.56-6.56,2.56c-6.14,0-8.74-3.88-8.74-9.27c0-5.01,2.76-9.24,8.23-9.24   c5.44,0,7.5,3.84,7.5,7.68c0,0.97-0.12,2.33-0.31,3.07h-10.68c0.12,2.33,1.44,3.76,4,3.76C550.15,59.85,551.74,59.31,553.06,58.23z    M551.28,52.75c0.04-0.23,0.08-0.47,0.08-0.58c0-2.1-1.48-3.07-3.15-3.07c-2.33,0-3.34,1.63-3.46,3.65H551.28z"></path>
	<path d="M559.86,45.73h4.54v2.02c0.93-1.32,2.64-2.41,5.48-2.41c4,0,6.06,2.44,6.06,7.02v11.06h-4.74V52.91   c0-2.13-0.82-3.26-3.18-3.26c-1.36,0-2.76,0.66-3.46,1.32v12.46h-4.7V45.73z"></path>
	<path d="M588.12,45.34c3.26,0,5.86,1.32,7.11,3.96l-3.26,2.33c-0.78-1.28-1.83-2.13-3.46-2.13c-2.76,0-3.81,2.13-3.81,5.08   c0,2.95,1.05,5.12,3.81,5.12c1.63,0,2.72-0.89,3.46-2.17l3.26,2.37c-1.24,2.64-3.84,3.96-7.11,3.96c-5.86,0-8.19-4.27-8.19-9.27   C579.93,49.61,582.26,45.34,588.12,45.34z"></path>
	<path d="M611.19,58.23l2.21,3.07c-1.36,1.36-3.73,2.56-6.56,2.56c-6.14,0-8.74-3.88-8.74-9.27c0-5.01,2.76-9.24,8.23-9.24   c5.44,0,7.5,3.84,7.5,7.68c0,0.97-0.12,2.33-0.31,3.07h-10.68c0.12,2.33,1.44,3.76,4,3.76C608.28,59.85,609.87,59.31,611.19,58.23z    M609.4,52.75c0.04-0.23,0.08-0.47,0.08-0.58c0-2.1-1.48-3.07-3.15-3.07c-2.33,0-3.34,1.63-3.46,3.65H609.4z"></path>
	<path d="M628.74,50.7c-1.05-1.05-2.52-1.82-4.27-1.82c-1.63,0-2.41,0.78-2.41,1.71c0,0.81,0.5,1.44,1.63,1.67l2.95,0.7   c3.53,0.78,5.05,2.68,5.05,5.24c0,2.79-1.9,5.67-7.69,5.67c-3.81,0-6.1-1.59-7.22-2.99l2.68-2.79c1.01,1.09,2.52,2.29,4.74,2.29   c1.59,0,2.72-0.58,2.72-1.75c0-0.78-0.58-1.4-1.79-1.67l-3.07-0.74c-3.11-0.78-4.66-2.6-4.66-5.16c0-2.56,1.9-5.7,7.26-5.7   c3.5,0,5.51,1.32,6.68,2.6L628.74,50.7z"></path>
	<path d="M327.67,77.59h2.89l2.21,17.13h-2.1l-1.8-14.55l-4.64,14.55h-2.36l-4.56-14.55l-1.85,14.55h-2.13l2.31-17.13h2.99   l4.46,14.37L327.67,77.59z"></path>
	<path d="M343.41,91.99l1.01,1.37c-0.76,0.84-2.38,1.62-4.16,1.62c-3.8,0-5.3-2.51-5.3-6.06c0-3.32,1.6-6.01,5.07-6.01   c3.25,0,4.64,2.38,4.64,4.87c0,0.56-0.08,1.32-0.15,1.8h-7.53c0.05,2.18,0.99,3.65,3.27,3.65   C341.25,93.23,342.55,92.82,343.41,91.99z M342.7,88.03c0.03-0.15,0.05-0.38,0.05-0.51c0-1.75-1.01-2.91-2.71-2.91   c-2.08,0-2.89,1.5-3.02,3.42H342.7z"></path>
	<path d="M347.46,83.17h1.98v1.34c0.76-0.84,1.9-1.6,3.42-1.6c1.9,0,2.92,0.68,3.68,1.77c0.84-0.99,2.23-1.77,4.01-1.77   c2.92,0,4.11,1.52,4.11,4.31v7.5h-2.03v-7.38c0-1.7-0.68-2.56-2.51-2.56c-1.34,0-2.33,0.58-2.99,1.34v8.59h-2v-8.46   c-0.48-0.94-1.34-1.47-2.69-1.47c-1.29,0-2.23,0.63-2.94,1.32v8.62h-2.03V83.17z"></path>
	<path d="M370,84.26c0.61-0.71,1.55-1.34,3.2-1.34c3.45,0,4.97,2.36,4.97,6.01c0,3.65-1.57,6.06-4.97,6.06   c-1.72,0-2.84-0.63-3.5-1.37l-0.58,1.12h-1.14V77.24H370V84.26z M372.84,84.79c-1.55,0-2.46,0.81-2.84,1.39v5.45   c0.43,0.68,1.39,1.47,2.84,1.47c2.54,0,3.27-1.8,3.27-4.18C376.11,86.51,375.35,84.79,372.84,84.79z"></path>
	<path d="M388.89,91.99l1.01,1.37c-0.76,0.84-2.38,1.62-4.16,1.62c-3.8,0-5.3-2.51-5.3-6.06c0-3.32,1.6-6.01,5.07-6.01   c3.25,0,4.64,2.38,4.64,4.87c0,0.56-0.08,1.32-0.15,1.8h-7.53c0.05,2.18,0.99,3.65,3.27,3.65   C386.73,93.23,388.02,92.82,388.89,91.99z M388.18,88.03c0.03-0.15,0.05-0.38,0.05-0.51c0-1.75-1.01-2.91-2.71-2.91   c-2.08,0-2.89,1.5-3.02,3.42H388.18z"></path>
	<path d="M394.94,85.07c0.58-1.14,1.52-2.15,3.22-2.15c0.51,0,1.01,0.05,1.4,0.18l-0.23,2.13c-0.46-0.13-1.09-0.23-1.55-0.23   c-1.42,0-2.26,0.94-2.81,2.18v7.55h-2.03V83.17h1.98v1.9H394.94z"></path>
	<path d="M416.47,88.92c0,3.52-1.55,6.06-5.28,6.06c-3.52,0-5.15-2.56-5.15-6.03c0-3.47,1.57-6.03,5.22-6.03   C414.89,82.91,416.47,85.47,416.47,88.92z M414.39,88.95c0-2.59-0.89-4.18-3.17-4.18c-2.18,0-3.12,1.6-3.12,4.16   c0,2.61,0.94,4.21,3.12,4.21C413.5,93.13,414.39,91.51,414.39,88.95z"></path>
	<path d="M425.03,79.01h-1.24c-1.37,0-1.75,0.89-1.75,2.31v1.85h3.37v1.77h-3.37v9.78h-2.03v-9.78h-1.98v-1.52l1.98-0.25v-1.85   c0-2.48,1.06-4.08,3.7-4.08h1.32V79.01z"></path>
	<path d="M441.59,81.04c-0.71-1.14-1.93-1.8-3.7-1.8c-2.18,0-3.3,1.32-3.3,2.96c0,1.44,0.81,2.13,2.43,2.61l2.28,0.68   c2.56,0.79,4.13,2.05,4.13,4.49c0,2.96-2.21,4.99-5.86,4.99c-3.86,0-5.22-1.85-5.88-3.24l1.65-1.12c0.58,1.29,1.5,2.46,4.24,2.46   c2.41,0,3.6-1.19,3.6-2.96c0-1.5-1.07-2.21-2.61-2.66l-2.28-0.68c-2.56-0.79-3.93-2.21-3.93-4.46c0-2.58,1.72-4.97,5.53-4.97   c2.76,0,4.51,1.19,5.3,2.51L441.59,81.04z"></path>
	<path d="M446.53,88.34V77.59h2.18v10.77c0,3.37,1.45,4.71,4.13,4.71c2.66,0,4.13-1.34,4.13-4.71V77.59h2.18v10.75   c0,4.82-2.61,6.64-6.31,6.64C449.14,94.98,446.53,93.13,446.53,88.34z"></path>
	<path d="M465.36,87.98v6.74h-2.18V77.59h5.45c3.93,0,5.76,1.98,5.76,5.2c0,3.19-1.83,5.2-5.76,5.2H465.36z M465.36,86.13h3.14   c2.74,0,3.65-1.37,3.65-3.35c0-1.95-0.91-3.35-3.65-3.35h-3.14V86.13z"></path>
	<path d="M486.18,81.04c-0.71-1.14-1.93-1.8-3.7-1.8c-2.18,0-3.3,1.32-3.3,2.96c0,1.44,0.81,2.13,2.43,2.61l2.28,0.68   c2.56,0.79,4.13,2.05,4.13,4.49c0,2.96-2.21,4.99-5.86,4.99c-3.86,0-5.22-1.85-5.88-3.24l1.65-1.12c0.58,1.29,1.5,2.46,4.24,2.46   c2.41,0,3.6-1.19,3.6-2.96c0-1.5-1.06-2.21-2.61-2.66l-2.28-0.68c-2.56-0.79-3.93-2.21-3.93-4.46c0-2.58,1.72-4.97,5.53-4.97   c2.76,0,4.51,1.19,5.3,2.51L486.18,81.04z"></path>
	<path d="M491.27,77.59h2.18v17.13h-2.18V77.59z"></path>
</g>
</svg>
